<?xml version="1.0" encoding="UTF-8" standalone="no" ?>
<!DOCTYPE svg PUBLIC "-//W3C//DTD SVG 1.1//EN" "http://www.w3.org/Graphics/SVG/1.1/DTD/svg11.dtd">
<svg xmlns="http://www.w3.org/2000/svg" xmlns:xlink="http://www.w3.org/1999/xlink" version="1.1" width="500" height="500" viewBox="0 0 500 500" xml:space="preserve">
<desc>Created with Fabric.js 4.6.0</desc>
<defs>
</defs>
<g transform="matrix(1 0 0 1 250.5 249.47)" id="d9X9_ClyLJsNGdcaV1kHa"  >
<path style="stroke: rgb(168,232,141); stroke-width: 0; stroke-dasharray: none; stroke-linecap: butt; stroke-dashoffset: 0; stroke-linejoin: miter; stroke-miterlimit: 4; fill: rgb(0,0,0); fill-rule: nonzero; opacity: 1;" vector-effect="non-scaling-stroke"  transform=" translate(-249.46, -249.46)" d="M 0 105.85357 C 0 47.39226000000001 47.39226 0 105.85357 0 L 393.06077 0 C 451.52207999999996 0 498.91434 47.39226 498.91434 105.85357 L 498.91434 393.06082 C 498.91434 417.82565 490.40999 440.60418999999996 476.16240999999997 458.63531 C 439.79623999999995 421.38807 443.61021999999997 316.26716 443.61021999999997 316.26716 L 443.61021999999997 172.20716 C 443.61021999999997 97.72715999999998 390.85821999999996 60.48715999999999 285.35421999999994 60.48715999999999 C 258.47421999999995 60.48715999999999 224.37021999999993 66.36715999999998 183.04221999999993 78.12715999999999 C 141.71421999999993 89.88716 106.60221999999993 103.11715999999998 77.70621999999993 117.81715999999999 L 106.93821999999993 175.88216 C 133.14621999999991 166.08216 156.83421999999993 158.85466 178.0022199999999 154.19966 C 199.17021999999992 149.54466 217.4822199999999 147.21716 232.93821999999992 147.21716 C 269.8982199999999 147.21716 295.0982199999999 151.62716 308.5382199999999 160.44716 C 321.9782199999999 169.26716 328.69821999999994 185.68216 328.69821999999994 209.69216 L 328.69821999999994 222.18716 L 260.15421999999995 222.18716 C 204.37821999999994 222.18716 157.00221999999997 233.57966000000002 118.02621999999997 256.36466 C 79.05021999999997 279.14966000000004 59.56221999999997 306.09966000000003 59.56221999999997 337.21466 C 59.56221999999997 368.32966 72.16221999999996 393.07466 97.36221999999997 411.44966 C 122.56221999999997 429.82466 154.98621999999997 439.01216 194.63421999999997 439.01216 L 194.63422999999997 439.01215 C 251.08222999999998 439.01215 297.78623 418.67715000000004 334.74622999999997 378.00715 C 341.97031 394.68776 346.49496999999997 408.60823000000005 361.07554 437.09131 C 375.6561 465.5744 390.61216 478.34447 407.70426 488.89036000000004 C 411.18287 491.03668000000005 418.47342999999995 492.47879000000006 427.48059 493.19252000000006 C 416.68958 496.90109000000007 405.11029 498.9143900000001 393.06077 498.9143900000001 L 105.85356999999999 498.9143900000001 C 47.39225999999999 498.9143900000001 -1.4210854715202004e-14 451.52213000000006 -1.4210854715202004e-14 393.0608200000001 z M 194.63422 351.17966 C 183.88222 342.60466 178.50621999999998 331.21216000000004 178.50621999999998 317.00216 C 178.50621999999998 289.56216 199.67422 275.84216000000004 242.01021999999998 275.84216000000004 C 264.18622 275.84216000000004 293.08222 278.78216000000003 328.69822 284.66216000000003 L 328.69822 333.90716000000003 C 294.42622 353.99716 263.85022 364.04216 236.97021999999998 364.04216 C 219.49821999999998 364.04216 205.38621999999998 359.75466 194.63421999999997 351.17966 z" stroke-linecap="round" />
</g>
<g transform="matrix(1 0 0 1 268.77 276.91)" id="5GP_ovjeP5JgCs5_2nfaI"  >
<path style="stroke: none; stroke-width: 1; stroke-dasharray: none; stroke-linecap: butt; stroke-dashoffset: 0; stroke-linejoin: miter; stroke-miterlimit: 4; fill: rgb(255,255,255); fill-rule: nonzero; opacity: 1;" vector-effect="non-scaling-stroke"  transform=" translate(-208.27, -216.42)" d="M 135.072 378.525 C 95.424 378.525 63 369.3375 37.8 350.9625 C 12.599999999999998 332.5875 0 307.8425 0 276.72749999999996 C 0 245.61249999999995 19.488 218.66249999999997 58.464 195.87749999999997 C 97.44 173.09249999999997 144.816 161.69999999999996 200.59199999999998 161.69999999999996 L 269.13599999999997 161.69999999999996 L 269.13599999999997 149.20499999999996 C 269.13599999999997 125.19499999999995 262.41599999999994 108.77999999999996 248.97599999999997 99.95999999999995 C 235.53599999999997 91.13999999999996 210.33599999999996 86.72999999999995 173.37599999999998 86.72999999999995 C 157.92 86.72999999999995 139.60799999999998 89.05749999999995 118.43999999999997 93.71249999999995 C 97.27199999999996 98.36749999999995 73.58399999999997 105.59499999999994 47.375999999999976 115.39499999999995 L 18.143999999999977 57.329999999999956 C 47.03999999999998 42.62999999999995 82.15199999999997 29.399999999999956 123.47999999999998 17.639999999999958 C 164.808 5.879999999999958 198.91199999999998 -4.263256414560601e-14 225.79199999999997 -4.263256414560601e-14 C 331.296 -4.263256414560601e-14 384.048 37.23999999999996 384.048 111.71999999999996 L 384.048 255.77999999999997 C 384.048 255.77999999999997 380.23765 360.80087 416.5483 398.09492 C 404.57313999999997 413.67604 388.35916 425.82968 369.63124999999997 432.83093 C 359.83982999999995 432.16959 351.83862 430.684 348.14203999999995 428.40319 C 331.04993999999994 417.8573 316.09387999999996 405.08723 301.51331999999996 376.60414 C 286.93274999999994 348.12105999999994 282.40808999999996 334.20059 275.18400999999994 317.51998 C 238.22400999999994 358.18998 191.52000999999996 378.52497999999997 135.07200999999995 378.52497999999997 z M 177.408 303.555 C 204.28799999999998 303.555 234.86399999999998 293.51 269.13599999999997 273.42 L 269.13599999999997 224.175 C 233.51999999999998 218.29500000000002 204.62399999999997 215.35500000000002 182.44799999999998 215.35500000000002 C 140.11199999999997 215.35500000000002 118.94399999999999 229.07500000000002 118.94399999999999 256.515 C 118.94399999999999 270.72499999999997 124.32 282.1175 135.072 290.6925 C 145.824 299.2675 159.936 303.555 177.40800000000002 303.555 z" stroke-linecap="round" />
</g>
</svg>